Amstelvar-Italic-wght900.ufo
<glyph name="quotedbl" format="2">
  <advance width="1003"/>
  <unicode hex="0022"/>
  <outline>
    <contour>
      <point x="278" y="934" type="line"/>
      <point x="283" y="1383" type="line" smooth="yes"/>
      <point x="284" y="1462"/>
      <point x="391" y="1558"/>
      <point x="479" y="1558" type="qcurve" smooth="yes"/>
      <point x="562" y="1558"/>
      <point x="648" y="1437"/>
      <point x="608" y="1368" type="qcurve" smooth="yes"/>
      <point x="373" y="934" type="line"/>
    </contour>
    <contour>
      <point x="698" y="934" type="line"/>
      <point x="703" y="1383" type="line" smooth="yes"/>
      <point x="704" y="1462"/>
      <point x="811" y="1558"/>
      <point x="899" y="1558" type="qcurve" smooth="yes"/>
      <point x="982" y="1558"/>
      <point x="1068" y="1437"/>
      <point x="1028" y="1368" type="qcurve" smooth="yes"/>
      <point x="793" y="934" type="line"/>
    </contour>
  </outline>
</glyph>
<glyph name="parenright" format="2">
  <advance width="785"/>
  <unicode hex="0029"/>
  <outline>
    <contour>
      <point x="780" y="693" type="qcurve" smooth="yes"/>
      <point x="743" y="421"/>
      <point x="288" y="-42"/>
      <point x="17" y="-153" type="qcurve"/>
      <point x="-75" y="-75" type="line"/>
      <point x="39" y="42"/>
      <point x="260" y="461"/>
      <point x="297" y="692" type="qcurve" smooth="yes"/>
      <point x="335" y="927"/>
      <point x="272" y="1326"/>
      <point x="198" y="1450" type="qcurve"/>
      <point x="311" y="1538" type="line"/>
      <point x="549" y="1415"/>
      <point x="817" y="967"/>
    </contour>
  </outline>
</glyph>
<glyph name="comma" format="2">
  <advance width="673"/>
  <unicode hex="002C"/>
  <outline>
    <contour>
      <point x="53.0" y="-228.0" type="line"/>
      <point x="131" y="-179"/>
      <point x="254" y="-60"/>
      <point x="280" y="1" type="qcurve"/>
      <point x="172" y="1"/>
      <point x="51" y="116"/>
      <point x="51" y="205" type="qcurve" smooth="yes"/>
      <point x="51" y="292"/>
      <point x="186" y="421"/>
      <point x="281" y="421.0" type="qcurve" smooth="yes"/>
      <point x="376" y="421.0"/>
      <point x="507" y="294"/>
      <point x="507" y="167" type="qcurve" smooth="yes"/>
      <point x="507" y="23"/>
      <point x="311" y="-222"/>
      <point x="130" y="-321.0" type="qcurve"/>
    </contour>
  </outline>
</glyph>
<glyph name="one" format="2">
  <advance width="1006"/>
  <unicode hex="0031"/>
  <outline>
    <contour>
      <point x="235" y="44" type="line"/>
      <point x="257" y="106"/>
      <point x="293" y="214"/>
      <point x="311" y="321" type="qcurve" smooth="yes"/>
      <point x="424" y="985" type="line"/>
      <point x="449" y="1177" type="line"/>
      <point x="118" y="1039" type="line"/>
      <point x="65" y="1203" type="line"/>
      <point x="807" y="1525" type="line"/>
      <point x="986" y="1420" type="line"/>
      <point x="955" y="1375"/>
      <point x="916" y="1237"/>
      <point x="912" y="1214" type="qcurve" smooth="yes"/>
      <point x="823" y="719" type="line"/>
      <point x="742" y="150" type="line"/>
      <point x="398" y="-34" type="line"/>
    </contour>
  </outline>
</glyph>
<glyph name="eight" format="2">
  <advance width="1311"/>
  <unicode hex="0038"/>
  <outline>
    <contour>
      <point x="27" y="315" type="qcurve" smooth="yes"/>
      <point x="27" y="487"/>
      <point x="352" y="748"/>
      <point x="629" y="846" type="qcurve"/>
      <point x="740" y="759" type="line"/>
      <point x="581" y="690"/>
      <point x="335" y="475"/>
      <point x="335" y="334" type="qcurve" smooth="yes"/>
      <point x="335" y="243"/>
      <point x="459" y="119"/>
      <point x="592" y="119" type="qcurve" smooth="yes"/>
      <point x="730" y="119"/>
      <point x="890" y="262"/>
      <point x="890" y="378" type="qcurve" smooth="yes"/>
      <point x="890" y="487"/>
      <point x="659" y="655"/>
      <point x="577" y="700" type="qcurve" smooth="yes"/>
      <point x="450" y="772"/>
      <point x="268" y="966"/>
      <point x="268" y="1120" type="qcurve" smooth="yes"/>
      <point x="268" y="1279"/>
      <point x="569" y="1522"/>
      <point x="885" y="1522" type="qcurve" smooth="yes"/>
      <point x="1117" y="1522"/>
      <point x="1331" y="1348"/>
      <point x="1321" y="1215" type="qcurve" smooth="yes"/>
      <point x="1311" y="1083"/>
      <point x="1080" y="886"/>
      <point x="825" y="791" type="qcurve"/>
      <point x="704" y="881" type="line"/>
      <point x="850" y="950"/>
      <point x="1030" y="1111"/>
      <point x="1030" y="1218" type="qcurve" smooth="yes"/>
      <point x="1030" y="1284"/>
      <point x="947" y="1366"/>
      <point x="866" y="1366" type="qcurve" smooth="yes"/>
      <point x="748" y="1366"/>
      <point x="633" y="1253"/>
      <point x="633" y="1171" type="qcurve" smooth="yes"/>
      <point x="633" y="1085"/>
      <point x="826" y="957"/>
      <point x="939" y="886" type="qcurve" smooth="yes"/>
      <point x="1130" y="766"/>
      <point x="1271" y="586"/>
      <point x="1271" y="455" type="qcurve" smooth="yes"/>
      <point x="1271" y="262"/>
      <point x="883" y="-31"/>
      <point x="546" y="-31" type="qcurve" smooth="yes"/>
      <point x="292" y="-31"/>
      <point x="27" y="156"/>
    </contour>
  </outline>
</glyph>
<glyph name="nine" format="2">
  <advance width="1367"/>
  <unicode hex="0039"/>
  <outline>
    <contour>
      <point x="156" y="-60" type="qcurve"/>
      <point x="111" y="85" type="line"/>
      <point x="414" y="184"/>
      <point x="895" y="662"/>
      <point x="908" y="1045" type="qcurve" smooth="yes"/>
      <point x="914" y="1205"/>
      <point x="850" y="1377"/>
      <point x="762" y="1377" type="qcurve" smooth="yes"/>
      <point x="668" y="1377"/>
      <point x="560" y="1191"/>
      <point x="550" y="1021" type="qcurve" smooth="yes"/>
      <point x="543" y="907"/>
      <point x="595" y="771"/>
      <point x="667" y="771" type="qcurve" smooth="yes"/>
      <point x="696" y="771"/>
      <point x="754" y="787"/>
      <point x="790" y="816" type="qcurve"/>
      <point x="804" y="698" type="line"/>
      <point x="766" y="660"/>
      <point x="624" y="605"/>
      <point x="527" y="605" type="qcurve" smooth="yes"/>
      <point x="331" y="605"/>
      <point x="120" y="813"/>
      <point x="126" y="982" type="qcurve" smooth="yes"/>
      <point x="135" y="1237"/>
      <point x="513" y="1522"/>
      <point x="798" y="1522" type="qcurve" smooth="yes"/>
      <point x="1044" y="1522"/>
      <point x="1374" y="1250"/>
      <point x="1368" y="1020" type="qcurve" smooth="yes"/>
      <point x="1358" y="617"/>
      <point x="654" y="61"/>
    </contour>
  </outline>
</glyph>
<glyph name="equal" format="2">
  <advance width="1083"/>
  <unicode hex="003D"/>
  <outline>
    <contour>
      <point x="149" y="281" type="line"/>
      <point x="149" y="553" type="line"/>
      <point x="579" y="549" type="line"/>
      <point x="1013" y="553" type="line"/>
      <point x="1013" y="281" type="line"/>
      <point x="579" y="285" type="line"/>
    </contour>
    <contour>
      <point x="149" y="699" type="line"/>
      <point x="149" y="971" type="line"/>
      <point x="579" y="967" type="line"/>
      <point x="1013" y="971" type="line"/>
      <point x="1013" y="699" type="line"/>
      <point x="579" y="703" type="line"/>
    </contour>
  </outline>
</glyph>
<glyph name="question" format="2">
  <advance width="1132"/>
  <unicode hex="003F"/>
  <outline>
    <contour>
      <point x="121" y="1195" type="qcurve" smooth="yes"/>
      <point x="145" y="1349"/>
      <point x="439" y="1540"/>
      <point x="678" y="1540" type="qcurve" smooth="yes"/>
      <point x="926" y="1540"/>
      <point x="1161" y="1342"/>
      <point x="1149" y="1163" type="qcurve" smooth="yes"/>
      <point x="1137" y="989"/>
      <point x="891" y="776"/>
      <point x="768" y="736" type="qcurve" smooth="yes"/>
      <point x="654" y="699"/>
      <point x="446" y="624"/>
      <point x="426" y="542" type="qcurve" smooth="yes"/>
      <point x="417" y="495" type="line"/>
      <point x="267" y="495" type="line"/>
      <point x="268" y="579" type="line" smooth="yes"/>
      <point x="269" y="689"/>
      <point x="402" y="875"/>
      <point x="524" y="940" type="qcurve" smooth="yes"/>
      <point x="602" y="981"/>
      <point x="713" y="1086"/>
      <point x="724" y="1181" type="qcurve" smooth="yes"/>
      <point x="734" y="1267"/>
      <point x="652" y="1377"/>
      <point x="559" y="1377" type="qcurve" smooth="yes"/>
      <point x="462" y="1377"/>
      <point x="350" y="1313"/>
      <point x="341" y="1265" type="qcurve" smooth="yes"/>
      <point x="334" y="1230"/>
      <point x="428" y="1168"/>
      <point x="422" y="1100" type="qcurve" smooth="yes"/>
      <point x="418" y="1052"/>
      <point x="328" y="975"/>
      <point x="256" y="975" type="qcurve" smooth="yes"/>
      <point x="183" y="975"/>
      <point x="104" y="1087"/>
    </contour>
    <contour>
      <point x="81" y="187" type="qcurve" smooth="yes"/>
      <point x="81" y="273"/>
      <point x="205" y="399"/>
      <point x="302" y="399" type="qcurve" smooth="yes"/>
      <point x="398" y="399"/>
      <point x="523" y="273"/>
      <point x="523" y="187" type="qcurve" smooth="yes"/>
      <point x="523" y="104"/>
      <point x="398" y="-22"/>
      <point x="302" y="-22" type="qcurve" smooth="yes"/>
      <point x="205" y="-22"/>
      <point x="81" y="104"/>
    </contour>
  </outline>
</glyph>
<glyph name="at" format="2">
  <advance width="1765"/>
  <unicode hex="0040"/>
  <outline>
    <contour>
      <point x="469" y="566" type="qcurve" smooth="yes"/>
      <point x="469" y="818"/>
      <point x="880" y="1190"/>
      <point x="1079" y="1190" type="qcurve" smooth="yes"/>
      <point x="1094" y="1190"/>
      <point x="1125" y="1185"/>
      <point x="1139" y="1181" type="qcurve"/>
      <point x="1231" y="1230" type="line"/>
      <point x="1290" y="1230" type="line"/>
      <point x="1357" y="1099" type="line"/>
      <point x="1241" y="658" type="line"/>
      <point x="1211" y="471" type="line"/>
      <point x="1224" y="468"/>
      <point x="1242" y="465"/>
      <point x="1258" y="465" type="qcurve" smooth="yes"/>
      <point x="1374" y="465"/>
      <point x="1555" y="677"/>
      <point x="1578" y="862" type="qcurve" smooth="yes"/>
      <point x="1605" y="1076"/>
      <point x="1352" y="1374"/>
      <point x="1059" y="1374" type="qcurve" smooth="yes"/>
      <point x="751" y="1374"/>
      <point x="342" y="1022"/>
      <point x="297" y="733" type="qcurve" smooth="yes"/>
      <point x="250" y="432"/>
      <point x="522" y="109"/>
      <point x="809" y="109" type="qcurve" smooth="yes"/>
      <point x="945" y="109"/>
      <point x="1133" y="170"/>
      <point x="1198" y="213" type="qcurve"/>
      <point x="1266" y="102" type="line"/>
      <point x="1161" y="30"/>
      <point x="898" y="-50"/>
      <point x="779" y="-50" type="qcurve" smooth="yes"/>
      <point x="430" y="-50"/>
      <point x="55" y="370"/>
      <point x="117" y="729" type="qcurve" smooth="yes"/>
      <point x="176" y="1069"/>
      <point x="714" y="1540"/>
      <point x="1085" y="1540" type="qcurve" smooth="yes"/>
      <point x="1438" y="1540"/>
      <point x="1805" y="1175"/>
      <point x="1756" y="859" type="qcurve" smooth="yes"/>
      <point x="1718" y="616"/>
      <point x="1413" y="334"/>
      <point x="1248" y="334" type="qcurve" smooth="yes"/>
      <point x="1156" y="334"/>
      <point x="1060" y="400"/>
      <point x="1037" y="471" type="qcurve"/>
      <point x="960" y="396"/>
      <point x="772" y="333"/>
      <point x="691" y="336" type="qcurve" smooth="yes"/>
      <point x="574" y="340"/>
      <point x="469" y="468"/>
    </contour>
    <contour>
      <point x="670" y="608" type="qcurve" smooth="yes"/>
      <point x="670" y="549"/>
      <point x="731" y="487"/>
      <point x="785" y="487" type="qcurve" smooth="yes"/>
      <point x="874" y="487"/>
      <point x="1040" y="634"/>
      <point x="1076" y="767" type="qcurve" smooth="yes"/>
      <point x="1130" y="1002" type="line"/>
      <point x="1127" y="1021"/>
      <point x="1076" y="1037"/>
      <point x="1050" y="1037" type="qcurve" smooth="yes"/>
      <point x="885" y="1037"/>
      <point x="670" y="769"/>
    </contour>
  </outline>
</glyph>
<glyph name="A" format="2">
  <advance width="1583"/>
  <unicode hex="0041"/>
  <outline>
    <contour>
      <point x="-124" y="0" type="line"/>
      <point x="-99" y="129" type="line"/>
      <point x="56" y="152" type="line"/>
      <point x="376" y="660" type="line"/>
      <point x="921" y="1520" type="line"/>
      <point x="1311" y="1502" type="line"/>
      <point x="1352" y="655" type="line"/>
      <point x="1384" y="150" type="line"/>
      <point x="1530" y="130" type="line"/>
      <point x="1517" y="0" type="line"/>
      <point x="724" y="0" type="line"/>
      <point x="747" y="130" type="line"/>
      <point x="883" y="151" type="line"/>
      <point x="866" y="648" type="line"/>
      <point x="847" y="1140" type="line"/>
      <point x="828" y="1147" type="line"/>
      <point x="514" y="625" type="line"/>
      <point x="232" y="146" type="line"/>
      <point x="371" y="129" type="line"/>
      <point x="355" y="0" type="line"/>
    </contour>
    <contour>
      <point x="375" y="487" type="line"/>
      <point x="440" y="636" type="line"/>
      <point x="650" y="630" type="line"/>
      <point x="631" y="501" type="line"/>
    </contour>
    <contour>
      <point x="650" y="630" type="line"/>
      <point x="919" y="638" type="line"/>
      <point x="931" y="499" type="line"/>
      <point x="631" y="501" type="line"/>
    </contour>
  </outline>
</glyph>
<glyph name="B" format="2">
  <advance width="1607"/>
  <unicode hex="0042"/>
  <outline>
    <contour>
      <point x="-7" y="0" type="line"/>
      <point x="16" y="130" type="line"/>
      <point x="143" y="150" type="line"/>
      <point x="278" y="806" type="line"/>
      <point x="373" y="1334" type="line"/>
      <point x="219" y="1357" type="line"/>
      <point x="235" y="1500" type="line"/>
      <point x="1134" y="1500" type="line" smooth="yes"/>
      <point x="1359" y="1500"/>
      <point x="1568" y="1332"/>
      <point x="1559" y="1163" type="qcurve" smooth="yes"/>
      <point x="1551" y="1016"/>
      <point x="1371" y="854"/>
      <point x="1245" y="830" type="qcurve"/>
      <point x="1244" y="823" type="line"/>
      <point x="1410" y="789"/>
      <point x="1557" y="575"/>
      <point x="1534" y="413" type="qcurve" smooth="yes"/>
      <point x="1507" y="226"/>
      <point x="1213" y="0"/>
      <point x="957" y="0" type="qcurve" smooth="yes"/>
    </contour>
    <contour>
      <point x="650" y="155" type="line"/>
      <point x="685" y="135" type="line"/>
      <point x="745" y="135" type="line" smooth="yes"/>
      <point x="883" y="135"/>
      <point x="1051" y="271"/>
      <point x="1074" y="420" type="qcurve" smooth="yes"/>
      <point x="1097" y="567"/>
      <point x="970" y="727"/>
      <point x="830" y="727" type="qcurve" smooth="yes"/>
      <point x="759" y="727" type="line"/>
      <point x="757" y="713" type="line"/>
    </contour>
    <contour>
      <point x="790" y="887" type="line"/>
      <point x="785" y="864" type="line"/>
      <point x="847" y="864" type="line" smooth="yes"/>
      <point x="956" y="864"/>
      <point x="1097" y="981"/>
      <point x="1113" y="1119" type="qcurve" smooth="yes"/>
      <point x="1128" y="1247"/>
      <point x="1038" y="1360"/>
      <point x="932" y="1360" type="qcurve" smooth="yes"/>
      <point x="902" y="1360" type="line"/>
      <point x="873" y="1342" type="line"/>
    </contour>
  </outline>
</glyph>
<glyph name="C" format="2">
  <advance width="1475"/>
  <unicode hex="0043"/>
  <outline>
    <contour>
      <point x="127" y="786" type="qcurve" smooth="yes"/>
      <point x="188" y="1159"/>
      <point x="741" y="1567"/>
      <point x="1192" y="1525" type="qcurve" smooth="yes"/>
      <point x="1309" y="1514"/>
      <point x="1489" y="1460"/>
      <point x="1529" y="1441" type="qcurve"/>
      <point x="1555" y="1429" type="line"/>
      <point x="1579" y="1415" type="line"/>
      <point x="1506" y="1010" type="line"/>
      <point x="1348" y="1010" type="line"/>
      <point x="1358" y="1219" type="line"/>
      <point x="1327" y="1285"/>
      <point x="1231" y="1355"/>
      <point x="1179" y="1364" type="qcurve" smooth="yes"/>
      <point x="988" y="1398"/>
      <point x="704" y="1107"/>
      <point x="655" y="759" type="qcurve" smooth="yes"/>
      <point x="614" y="466"/>
      <point x="746" y="181"/>
      <point x="923" y="159" type="qcurve" smooth="yes"/>
      <point x="1068" y="141"/>
      <point x="1298" y="265"/>
      <point x="1373" y="371" type="qcurve"/>
      <point x="1417" y="347" type="line"/>
      <point x="1460" y="262" type="line"/>
      <point x="1334" y="97"/>
      <point x="1022" y="-36"/>
      <point x="800" y="-29" type="qcurve" smooth="yes"/>
      <point x="462" y="-19"/>
      <point x="65" y="408"/>
    </contour>
  </outline>
</glyph>
<glyph name="F" format="2">
  <advance width="1338"/>
  <unicode hex="0046"/>
  <outline>
    <contour>
      <point x="-7" y="0" type="line"/>
      <point x="16" y="130" type="line"/>
      <point x="143" y="150" type="line"/>
      <point x="278" y="806" type="line"/>
      <point x="373" y="1334" type="line"/>
      <point x="219" y="1357" type="line"/>
      <point x="235" y="1500" type="line"/>
      <point x="1474" y="1500" type="line"/>
      <point x="1424" y="1139" type="line"/>
      <point x="1267" y="1139" type="line"/>
      <point x="1251" y="1342" type="line"/>
      <point x="911" y="1342" type="line"/>
      <point x="871" y="1318" type="line"/>
      <point x="766" y="760" type="line"/>
      <point x="652" y="150" type="line"/>
      <point x="842" y="130" type="line"/>
      <point x="817" y="0" type="line"/>
    </contour>
    <contour>
      <point x="501" y="708" type="line"/>
      <point x="527" y="824" type="line"/>
      <point x="1092" y="838" type="line"/>
      <point x="1149" y="995" type="line"/>
      <point x="1293" y="995" type="line"/>
      <point x="1203" y="529" type="line"/>
      <point x="1059" y="529" type="line"/>
      <point x="1062" y="692" type="line"/>
    </contour>
  </outline>
</glyph>
<glyph name="G" format="2">
  <advance width="1651"/>
  <unicode hex="0047"/>
  <outline>
    <contour>
      <point x="127" y="786" type="qcurve" smooth="yes"/>
      <point x="181" y="1143"/>
      <point x="741" y="1567"/>
      <point x="1192" y="1525" type="qcurve" smooth="yes"/>
      <point x="1309" y="1514"/>
      <point x="1489" y="1460"/>
      <point x="1529" y="1441" type="qcurve"/>
      <point x="1555" y="1429" type="line"/>
      <point x="1579" y="1415" type="line"/>
      <point x="1506" y="1010" type="line"/>
      <point x="1348" y="1010" type="line"/>
      <point x="1358" y="1219" type="line"/>
      <point x="1327" y="1285"/>
      <point x="1231" y="1355"/>
      <point x="1179" y="1364" type="qcurve" smooth="yes"/>
      <point x="988" y="1398"/>
      <point x="704" y="1107"/>
      <point x="655" y="759" type="qcurve" smooth="yes"/>
      <point x="614" y="466"/>
      <point x="746" y="181"/>
      <point x="903" y="159" type="qcurve" smooth="yes"/>
      <point x="957" y="151"/>
      <point x="1070" y="173"/>
      <point x="1110" y="199" type="qcurve"/>
      <point x="1175" y="556" type="line"/>
      <point x="1043" y="581" type="line"/>
      <point x="1059" y="712" type="line"/>
      <point x="1689" y="712" type="line"/>
      <point x="1671" y="580" type="line"/>
      <point x="1564" y="555" type="line"/>
      <point x="1500" y="181" type="line"/>
      <point x="1390" y="124" type="line"/>
      <point x="1295" y="57"/>
      <point x="982" y="-36"/>
      <point x="800" y="-29" type="qcurve" smooth="yes"/>
      <point x="462" y="-16"/>
      <point x="70" y="408"/>
    </contour>
  </outline>
</glyph>
<glyph name="K" format="2">
  <advance width="1761"/>
  <unicode hex="004B"/>
  <outline>
    <contour>
      <point x="-7" y="0" type="line"/>
      <point x="16" y="130" type="line"/>
      <point x="143" y="150" type="line"/>
      <point x="278" y="806" type="line"/>
      <point x="373" y="1334" type="line"/>
      <point x="219" y="1357" type="line"/>
      <point x="235" y="1500" type="line"/>
      <point x="1041" y="1500" type="line"/>
      <point x="1015" y="1357" type="line"/>
      <point x="881" y="1334" type="line"/>
      <point x="773" y="790" type="line"/>
      <point x="651" y="150" type="line"/>
      <point x="792" y="130" type="line"/>
      <point x="772" y="0" type="line"/>
    </contour>
    <contour>
      <point x="628" y="493" type="line"/>
      <point x="673" y="697" type="line"/>
      <point x="1379" y="1334" type="line"/>
      <point x="1265" y="1357" type="line"/>
      <point x="1288" y="1500" type="line"/>
      <point x="1798" y="1500" type="line"/>
      <point x="1775" y="1357" type="line"/>
      <point x="1634" y="1334" type="line"/>
    </contour>
    <contour>
      <point x="833" y="766" type="line"/>
      <point x="1224" y="1058" type="line"/>
      <point x="1621" y="150" type="line"/>
      <point x="1745" y="130" type="line"/>
      <point x="1730" y="0" type="line"/>
      <point x="949" y="0" type="line"/>
      <point x="968" y="130" type="line"/>
      <point x="1089" y="150" type="line"/>
    </contour>
  </outline>
</glyph>
<glyph name="N" format="2">
  <advance width="1592"/>
  <unicode hex="004E"/>
  <outline>
    <contour>
      <point x="-44" y="0" type="line"/>
      <point x="-23" y="130" type="line"/>
      <point x="133" y="165" type="line"/>
      <point x="250" y="754" type="line"/>
      <point x="360" y="1331" type="line"/>
      <point x="206" y="1358" type="line"/>
      <point x="226" y="1500" type="line"/>
      <point x="870" y="1500" type="line"/>
      <point x="1084" y="923" type="line"/>
      <point x="1249" y="484" type="line"/>
      <point x="1310" y="803" type="line"/>
      <point x="1409" y="1323" type="line"/>
      <point x="1242" y="1357" type="line"/>
      <point x="1268" y="1500" type="line"/>
      <point x="1744" y="1500" type="line"/>
      <point x="1718" y="1357" type="line"/>
      <point x="1569" y="1323" type="line"/>
      <point x="1462" y="779" type="line"/>
      <point x="1306" y="0" type="line"/>
      <point x="912" y="0" type="line"/>
      <point x="669" y="628" type="line"/>
      <point x="479" y="1139" type="line"/>
      <point x="395" y="701" type="line"/>
      <point x="293" y="165" type="line"/>
      <point x="448" y="130" type="line"/>
      <point x="429" y="0" type="line"/>
    </contour>
  </outline>
</glyph>
<glyph name="Q" format="2">
  <advance width="1815"/>
  <unicode hex="0051"/>
  <outline>
    <contour>
      <point x="83" y="884" type="qcurve" smooth="yes"/>
      <point x="162" y="1244"/>
      <point x="715" y="1565"/>
      <point x="1064" y="1525" type="qcurve" smooth="yes"/>
      <point x="1402" y="1487"/>
      <point x="1792" y="1019"/>
      <point x="1718" y="649" type="qcurve" smooth="yes"/>
      <point x="1644" y="280"/>
      <point x="1073" y="-33"/>
      <point x="722" y="6" type="qcurve" smooth="yes"/>
      <point x="347" y="49"/>
      <point x="5" y="524"/>
    </contour>
    <contour>
      <point x="614" y="842" type="qcurve" smooth="yes"/>
      <point x="546" y="517"/>
      <point x="595" y="200"/>
      <point x="759" y="170" type="qcurve" smooth="yes"/>
      <point x="919" y="141"/>
      <point x="1131" y="395"/>
      <point x="1194" y="719" type="qcurve" smooth="yes"/>
      <point x="1261" y="1063"/>
      <point x="1172" y="1340"/>
      <point x="1037" y="1363" type="qcurve" smooth="yes"/>
      <point x="882" y="1389"/>
      <point x="684" y="1175"/>
    </contour>
    <contour>
      <point x="25" y="-155" type="line"/>
      <point x="87" y="-78"/>
      <point x="295" y="17"/>
      <point x="385" y="12" type="qcurve"/>
      <point x="475" y="124"/>
      <point x="585" y="265"/>
      <point x="677" y="380" type="qcurve" smooth="yes"/>
      <point x="684" y="388"/>
      <point x="696" y="402"/>
      <point x="706" y="413" type="qcurve"/>
      <point x="731" y="403"/>
      <point x="830" y="346"/>
      <point x="842" y="333" type="qcurve"/>
      <point x="833" y="320"/>
      <point x="820" y="304"/>
      <point x="811" y="294" type="qcurve" smooth="yes"/>
      <point x="720" y="189"/>
      <point x="639" y="88"/>
      <point x="548" y="-20" type="qcurve"/>
      <point x="1132" y="-255" type="line" smooth="yes"/>
      <point x="1211" y="-287"/>
      <point x="1342" y="-235"/>
      <point x="1376" y="-184" type="qcurve"/>
      <point x="1471" y="-265" type="line"/>
      <point x="1424" y="-362"/>
      <point x="1205" y="-536"/>
      <point x="1062" y="-513" type="qcurve"/>
      <point x="307" y="-212" type="line"/>
      <point x="256" y="-199"/>
      <point x="145" y="-223"/>
      <point x="86" y="-266" type="qcurve"/>
    </contour>
  </outline>
</glyph>
<glyph name="V" format="2">
  <advance width="1587"/>
  <unicode hex="0056"/>
  <outline>
    <contour>
      <point x="161" y="1357" type="line"/>
      <point x="187" y="1500" type="line"/>
      <point x="975" y="1500" type="line"/>
      <point x="949" y="1357" type="line"/>
      <point x="799" y="1323" type="line"/>
      <point x="835" y="845" type="line"/>
      <point x="879" y="386" type="line"/>
      <point x="883" y="386" type="line"/>
      <point x="1139" y="832" type="line"/>
      <point x="1406" y="1323" type="line"/>
      <point x="1258" y="1357" type="line"/>
      <point x="1284" y="1500" type="line"/>
      <point x="1754" y="1500" type="line"/>
      <point x="1728" y="1357" type="line"/>
      <point x="1588" y="1323" type="line"/>
      <point x="1283" y="795" type="line"/>
      <point x="834" y="0" type="line"/>
      <point x="403" y="0" type="line"/>
      <point x="342" y="759" type="line"/>
      <point x="293" y="1323" type="line"/>
    </contour>
  </outline>
</glyph>
<glyph name="Y" format="2">
  <advance width="1501"/>
  <unicode hex="0059"/>
  <outline>
    <contour>
      <point x="144" y="1357" type="line"/>
      <point x="165" y="1500" type="line"/>
      <point x="954" y="1500" type="line"/>
      <point x="933" y="1357" type="line"/>
      <point x="802" y="1323" type="line"/>
      <point x="873" y="1079" type="line"/>
      <point x="968" y="786" type="line"/>
      <point x="1165" y="1067" type="line"/>
      <point x="1340" y="1323" type="line"/>
      <point x="1223" y="1357" type="line"/>
      <point x="1244" y="1500" type="line"/>
      <point x="1680" y="1500" type="line"/>
      <point x="1659" y="1357" type="line"/>
      <point x="1520" y="1323" type="line"/>
      <point x="1294" y="1020" type="line"/>
      <point x="1017" y="620" type="line"/>
      <point x="929" y="164" type="line"/>
      <point x="1092" y="130" type="line"/>
      <point x="1075" y="0" type="line"/>
      <point x="228" y="0" type="line"/>
      <point x="251" y="130" type="line"/>
      <point x="425" y="164" type="line"/>
      <point x="515" y="615" type="line"/>
      <point x="381" y="994" type="line"/>
      <point x="264" y="1323" type="line"/>
    </contour>
  </outline>
</glyph>
<glyph name="bracketleft" format="2">
  <advance width="750"/>
  <unicode hex="005B"/>
  <outline>
    <contour>
      <point x="100" y="508.0" type="line"/>
      <point x="254" y="1362.0" type="line"/>
      <point x="238" y="1382.0" type="line"/>
      <point x="261" y="1500.0" type="line"/>
      <point x="898" y="1500.0" type="line"/>
      <point x="875" y="1381.0" type="line"/>
      <point x="682" y="1362.0" type="line"/>
      <point x="504" y="508.0" type="line"/>
      <point x="350" y="-342.0" type="line"/>
      <point x="537" y="-361.0" type="line"/>
      <point x="514" y="-480.0" type="line"/>
      <point x="-123" y="-480.0" type="line"/>
      <point x="-100" y="-362.0" type="line"/>
      <point x="-78" y="-342.0" type="line"/>
    </contour>
  </outline>
</glyph>
<glyph name="bracketright" format="2">
  <advance width="750"/>
  <unicode hex="005D"/>
  <outline>
    <contour>
      <point x="-164" y="-480.0" type="line"/>
      <point x="-141" y="-361.0" type="line"/>
      <point x="52" y="-342.0" type="line"/>
      <point x="230" y="508.0" type="line"/>
      <point x="384" y="1362.0" type="line"/>
      <point x="197" y="1381.0" type="line"/>
      <point x="220" y="1500.0" type="line"/>
      <point x="857" y="1500.0" type="line"/>
      <point x="834" y="1382.0" type="line"/>
      <point x="812" y="1362.0" type="line"/>
      <point x="634" y="508.0" type="line"/>
      <point x="480" y="-342.0" type="line"/>
      <point x="496" y="-362.0" type="line"/>
      <point x="473" y="-480.0" type="line"/>
    </contour>
  </outline>
</glyph>
<glyph name="underscore" format="2">
  <advance width="1448"/>
  <unicode hex="005F"/>
  <outline>
    <contour>
      <point x="-222" y="-561" type="line"/>
      <point x="-175" y="-322" type="line"/>
      <point x="629" y="-314" type="line"/>
      <point x="1443" y="-322" type="line"/>
      <point x="1396" y="-561" type="line"/>
      <point x="582" y="-567" type="line"/>
    </contour>
  </outline>
</glyph>
<glyph name="d" format="2">
  <advance width="1510"/>
  <unicode hex="0064"/>
  <outline>
    <contour>
      <point x="20" y="278" type="qcurve" smooth="yes"/>
      <point x="20" y="578"/>
      <point x="500" y="1050"/>
      <point x="893" y="1050" type="qcurve" smooth="yes"/>
      <point x="975" y="1050" type="line"/>
      <point x="1030" y="1334" type="line"/>
      <point x="890" y="1435" type="line"/>
      <point x="928" y="1557" type="line"/>
      <point x="1404" y="1602" type="line"/>
      <point x="1502" y="1493" type="line"/>
      <point x="1301" y="469" type="line"/>
      <point x="1257" y="173" type="line"/>
      <point x="1402" y="163" type="line"/>
      <point x="1397" y="44" type="line"/>
      <point x="860" y="-8" type="line"/>
      <point x="813" y="73" type="line"/>
      <point x="826" y="192" type="line"/>
      <point x="756" y="98"/>
      <point x="525" y="-15"/>
      <point x="344" y="-15" type="qcurve" smooth="yes"/>
      <point x="197" y="-15"/>
      <point x="20" y="143"/>
    </contour>
    <contour>
      <point x="487" y="315" type="qcurve" smooth="yes"/>
      <point x="487" y="254"/>
      <point x="532" y="197"/>
      <point x="581" y="197" type="qcurve" smooth="yes"/>
      <point x="659" y="197"/>
      <point x="843" y="369"/>
      <point x="880" y="526" type="qcurve" smooth="yes"/>
      <point x="949" y="807" type="line"/>
      <point x="946" y="840"/>
      <point x="895" y="877"/>
      <point x="851" y="877" type="qcurve" smooth="yes"/>
      <point x="709" y="877"/>
      <point x="487" y="506"/>
    </contour>
  </outline>
</glyph>
<glyph name="g" format="2">
  <advance width="1471"/>
  <unicode hex="0067"/>
  <outline>
    <contour>
      <point x="20" y="266" type="qcurve" smooth="yes"/>
      <point x="20" y="587"/>
      <point x="492" y="1041"/>
      <point x="859" y="1041" type="qcurve" smooth="yes"/>
      <point x="900" y="1041"/>
      <point x="996" y="1021"/>
      <point x="1019" y="1005" type="qcurve"/>
      <point x="1193" y="1060" type="line"/>
      <point x="1332" y="1060" type="line"/>
      <point x="1398" y="859" type="line"/>
      <point x="1339" y="600" type="line" smooth="yes"/>
      <point x="1298" y="421"/>
      <point x="1252" y="181"/>
      <point x="1214" y="46" type="qcurve" smooth="yes"/>
      <point x="1129" y="-256"/>
      <point x="671" y="-474"/>
      <point x="301" y="-464" type="qcurve"/>
      <point x="113" y="-419" type="line"/>
      <point x="115" y="-308" type="line"/>
      <point x="349" y="-302" type="line" smooth="yes"/>
      <point x="517" y="-297"/>
      <point x="753" y="-139"/>
      <point x="791" y="44" type="qcurve" smooth="yes"/>
      <point x="815" y="161" type="line"/>
      <point x="725" y="84"/>
      <point x="502" y="-10"/>
      <point x="366" y="-10" type="qcurve" smooth="yes"/>
      <point x="191" y="-10"/>
      <point x="20" y="149"/>
    </contour>
    <contour>
      <point x="487" y="315" type="qcurve" smooth="yes"/>
      <point x="487" y="254"/>
      <point x="532" y="197"/>
      <point x="581" y="197" type="qcurve" smooth="yes"/>
      <point x="659" y="197"/>
      <point x="843" y="369"/>
      <point x="880" y="526" type="qcurve" smooth="yes"/>
      <point x="954" y="822" type="line"/>
      <point x="951" y="855"/>
      <point x="900" y="892"/>
      <point x="856" y="892" type="qcurve" smooth="yes"/>
      <point x="714" y="892"/>
      <point x="487" y="506"/>
    </contour>
  </outline>
</glyph>
<glyph name="k" format="2">
  <advance width="1462"/>
  <unicode hex="006B"/>
  <outline>
    <contour>
      <point x="80" y="-23" type="line"/>
      <point x="38" y="56" type="line"/>
      <point x="141" y="527" type="line"/>
      <point x="289" y="1344" type="line"/>
      <point x="170" y="1440" type="line"/>
      <point x="208" y="1562" type="line"/>
      <point x="694" y="1602" type="line"/>
      <point x="792" y="1493" type="line"/>
      <point x="670" y="848" type="line"/>
      <point x="730" y="934"/>
      <point x="919" y="1050"/>
      <point x="1028" y="1050" type="qcurve" smooth="yes"/>
      <point x="1153" y="1050"/>
      <point x="1278" y="922"/>
      <point x="1290" y="826" type="qcurve" smooth="yes"/>
      <point x="1301" y="737" type="line"/>
      <point x="1290" y="715" type="line"/>
      <point x="1068" y="555" type="line"/>
      <point x="1279" y="182" type="line"/>
      <point x="1407" y="173" type="line"/>
      <point x="1402" y="45" type="line"/>
      <point x="912" y="-15" type="line" smooth="yes"/>
      <point x="897" y="-17"/>
      <point x="868" y="-1"/>
      <point x="817" y="106" type="qcurve"/>
      <point x="705" y="345" type="line"/>
      <point x="519" y="227" type="line"/>
      <point x="475" y="315" type="line"/>
      <point x="1005" y="708" type="line"/>
      <point x="1005" y="767"/>
      <point x="943" y="838"/>
      <point x="890" y="838" type="qcurve" smooth="yes"/>
      <point x="820" y="838"/>
      <point x="682" y="725"/>
      <point x="631" y="644" type="qcurve"/>
      <point x="620" y="588" type="line"/>
      <point x="539" y="108" type="line"/>
      <point x="569" y="0" type="line"/>
    </contour>
  </outline>
</glyph>
<glyph name="l" format="2">
  <advance width="840"/>
  <unicode hex="006C"/>
  <outline>
    <contour>
      <point x="100" y="-18" type="line"/>
      <point x="49" y="118" type="line"/>
      <point x="162" y="606" type="line"/>
      <point x="299" y="1344" type="line"/>
      <point x="180" y="1440" type="line"/>
      <point x="218" y="1562" type="line"/>
      <point x="704" y="1602" type="line"/>
      <point x="802" y="1493" type="line"/>
      <point x="630" y="588" type="line"/>
      <point x="555" y="189" type="line"/>
      <point x="768" y="190" type="line"/>
      <point x="759" y="63" type="line"/>
    </contour>
  </outline>
</glyph>
<glyph name="m" format="2">
  <advance width="2356"/>
  <unicode hex="006D"/>
  <outline>
    <contour>
      <point x="87" y="-7" type="line"/>
      <point x="58" y="120" type="line"/>
      <point x="151" y="495" type="line"/>
      <point x="211" y="803" type="line"/>
      <point x="69" y="799" type="line"/>
      <point x="77" y="939" type="line"/>
      <point x="447" y="1048" type="line"/>
      <point x="659" y="1048" type="line"/>
      <point x="692" y="784" type="line"/>
      <point x="659" y="636" type="line"/>
      <point x="556" y="160" type="line"/>
      <point x="599" y="16" type="line"/>
    </contour>
    <contour>
      <point x="888" y="-14" type="line"/>
      <point x="835" y="116" type="line"/>
      <point x="948" y="669" type="line" smooth="yes"/>
      <point x="965" y="752"/>
      <point x="926" y="830"/>
      <point x="874" y="830" type="qcurve" smooth="yes"/>
      <point x="816" y="830"/>
      <point x="678" y="719"/>
      <point x="620" y="636" type="qcurve"/>
      <point x="591" y="768" type="line"/>
      <point x="687" y="899"/>
      <point x="952" y="1069"/>
      <point x="1115" y="1069" type="qcurve" smooth="yes"/>
      <point x="1297" y="1069"/>
      <point x="1468" y="860"/>
      <point x="1435" y="688" type="qcurve" smooth="yes"/>
      <point x="1325" y="160" type="line"/>
      <point x="1365" y="22" type="line"/>
    </contour>
    <contour>
      <point x="1654" y="-14" type="line"/>
      <point x="1601" y="116" type="line"/>
      <point x="1714" y="669" type="line" smooth="yes"/>
      <point x="1731" y="752"/>
      <point x="1692" y="830"/>
      <point x="1640" y="830" type="qcurve" smooth="yes"/>
      <point x="1582" y="830"/>
      <point x="1444" y="719"/>
      <point x="1386" y="636" type="qcurve"/>
      <point x="1357" y="768" type="line"/>
      <point x="1453" y="899"/>
      <point x="1718" y="1069"/>
      <point x="1881" y="1069" type="qcurve" smooth="yes"/>
      <point x="2063" y="1069"/>
      <point x="2234" y="860"/>
      <point x="2201" y="688" type="qcurve" smooth="yes"/>
      <point x="2096" y="188" type="line"/>
      <point x="2251" y="172" type="line"/>
      <point x="2242" y="46" type="line"/>
    </contour>
  </outline>
</glyph>
<glyph name="s" format="2">
  <advance width="1154"/>
  <unicode hex="0073"/>
  <outline>
    <contour>
      <point x="16" y="210.0" type="qcurve" smooth="yes"/>
      <point x="15" y="295.0"/>
      <point x="126.0" y="402"/>
      <point x="225" y="402.0" type="qcurve" smooth="yes"/>
      <point x="267" y="402.0" type="line"/>
      <point x="270" y="234.0" type="line" smooth="yes"/>
      <point x="271" y="183"/>
      <point x="398" y="120.0"/>
      <point x="503" y="120.0" type="qcurve" smooth="yes"/>
      <point x="604" y="120.0"/>
      <point x="700" y="169.0"/>
      <point x="701" y="209.0" type="qcurve" smooth="yes"/>
      <point x="704" y="258.0"/>
      <point x="606" y="313.0"/>
      <point x="443" y="385.0" type="qcurve" smooth="yes"/>
      <point x="274" y="460.0"/>
      <point x="141" y="631.0"/>
      <point x="146" y="754.0" type="qcurve" smooth="yes"/>
      <point x="151" y="901.0"/>
      <point x="401" y="1074.0"/>
      <point x="699" y="1074.0" type="qcurve" smooth="yes"/>
      <point x="899" y="1074.0"/>
      <point x="1110" y="945.0"/>
      <point x="1111" y="854.0" type="qcurve" smooth="yes"/>
      <point x="1112" y="786.0"/>
      <point x="1008" y="699"/>
      <point x="931" y="699.0" type="qcurve" smooth="yes"/>
      <point x="888" y="699.0" type="line"/>
      <point x="886" y="824.0" type="line" smooth="yes"/>
      <point x="886" y="853"/>
      <point x="768" y="929.0"/>
      <point x="677" y="929.0" type="qcurve" smooth="yes"/>
      <point x="599" y="929.0"/>
      <point x="518" y="886.0"/>
      <point x="518" y="848.0" type="qcurve" smooth="yes"/>
      <point x="519" y="812.0"/>
      <point x="599" y="764.0"/>
      <point x="741" y="701.0" type="qcurve" smooth="yes"/>
      <point x="910" y="626.0"/>
      <point x="1057" y="472.0"/>
      <point x="1054" y="352.0" type="qcurve" smooth="yes"/>
      <point x="1049" y="176.0"/>
      <point x="756" y="-31.0"/>
      <point x="485" y="-31.0" type="qcurve" smooth="yes"/>
      <point x="253" y="-31.0"/>
      <point x="18" y="101.0"/>
    </contour>
  </outline>
</glyph>
<glyph name="u" format="2">
  <advance width="1595"/>
  <unicode hex="0075"/>
  <outline>
    <contour>
      <point x="916" y="-25" type="line"/>
      <point x="861" y="71" type="line"/>
      <point x="873" y="286" type="line"/>
      <point x="991" y="920" type="line"/>
      <point x="962" y="1033" type="line"/>
      <point x="1446" y="1061" type="line"/>
      <point x="1486" y="952" type="line"/>
      <point x="1372" y="415" type="line"/>
      <point x="1345" y="173" type="line"/>
      <point x="1489" y="173" type="line"/>
      <point x="1485" y="41" type="line"/>
    </contour>
    <contour>
      <point x="97" y="309" type="qcurve" smooth="yes"/>
      <point x="200" y="803" type="line"/>
      <point x="58" y="799" type="line"/>
      <point x="66" y="939" type="line"/>
      <point x="472" y="1050" type="line"/>
      <point x="630" y="1050" type="line"/>
      <point x="697" y="925" type="line"/>
      <point x="597" y="392" type="line" smooth="yes"/>
      <point x="581" y="304"/>
      <point x="624" y="213"/>
      <point x="685" y="213" type="qcurve" smooth="yes"/>
      <point x="739" y="213"/>
      <point x="847" y="287"/>
      <point x="908" y="361" type="qcurve"/>
      <point x="924" y="236" type="line"/>
      <point x="855" y="131"/>
      <point x="583" y="-17"/>
      <point x="438" y="-17" type="qcurve" smooth="yes"/>
      <point x="240" y="-17"/>
      <point x="67" y="164"/>
    </contour>
  </outline>
</glyph>
<glyph name="braceright" format="2">
  <advance width="802"/>
  <unicode hex="007D"/>
  <outline>
    <contour>
      <point x="-188" y="-482.0" type="qcurve"/>
      <point x="-167" y="-370.0" type="line"/>
      <point x="-125" y="-372.0"/>
      <point x="-79" y="-372.0"/>
      <point x="-39" y="-372.0" type="qcurve" smooth="yes"/>
      <point x="33" y="-372.0"/>
      <point x="128" y="-280.0"/>
      <point x="146" y="-184.0" type="qcurve" smooth="yes"/>
      <point x="166" y="-84.0"/>
      <point x="72" y="230.0"/>
      <point x="92" y="331.0" type="qcurve" smooth="yes"/>
      <point x="107" y="408.0"/>
      <point x="236" y="531.0"/>
      <point x="365" y="554.0" type="qcurve"/>
      <point x="250" y="576.0"/>
      <point x="163" y="697.0"/>
      <point x="181" y="792.0" type="qcurve" smooth="yes"/>
      <point x="199" y="883.0"/>
      <point x="387" y="1107.0"/>
      <point x="407" y="1208.0" type="qcurve" smooth="yes"/>
      <point x="426" y="1304.0"/>
      <point x="366" y="1388.0"/>
      <point x="296" y="1388.0" type="qcurve" smooth="yes"/>
      <point x="256" y="1388.0"/>
      <point x="214" y="1388.0"/>
      <point x="172" y="1386.0" type="qcurve"/>
      <point x="194" y="1500.0" type="line"/>
      <point x="224" y="1503.0"/>
      <point x="473" y="1510.0"/>
      <point x="530" y="1510.0" type="qcurve" smooth="yes"/>
      <point x="662" y="1510.0"/>
      <point x="834" y="1343.0"/>
      <point x="803" y="1184.0" type="qcurve" smooth="yes"/>
      <point x="780" y="1066.0"/>
      <point x="590" y="838"/>
      <point x="568" y="741.0" type="qcurve"/>
      <point x="549" y="594.0" type="line"/>
      <point x="763" y="594.0" type="line"/>
      <point x="740" y="476.0" type="line"/>
      <point x="588" y="469.0" type="line" smooth="yes"/>
      <point x="556" y="468"/>
      <point x="503" y="402"/>
      <point x="496" y="364.0" type="qcurve" smooth="yes"/>
      <point x="475" y="246"/>
      <point x="574" y="-50.0"/>
      <point x="551" y="-168.0" type="qcurve" smooth="yes"/>
      <point x="520" y="-327.0"/>
      <point x="291" y="-495.0"/>
      <point x="126" y="-495.0" type="qcurve" smooth="yes"/>
      <point x="69" y="-495.0"/>
      <point x="-159" y="-485.0"/>
    </contour>
  </outline>
</glyph>
<glyph name="cent" format="2">
  <advance width="1229"/>
  <unicode hex="00A2"/>
  <outline>
    <contour>
      <point x="589" y="-100" type="line"/>
      <point x="635" y="162" type="line"/>
      <point x="662" y="162" type="line"/>
      <point x="745" y="630" type="line"/>
      <point x="861" y="588" type="line"/>
      <point x="786" y="162" type="line"/>
      <point x="815" y="162" type="line"/>
      <point x="778" y="-50" type="line"/>
    </contour>
    <contour>
      <point x="831" y="1280" type="line"/>
      <point x="1018" y="1319" type="line"/>
      <point x="979" y="1098" type="line"/>
      <point x="951" y="1098" type="line"/>
      <point x="861" y="588" type="line"/>
      <point x="745" y="630" type="line"/>
      <point x="827" y="1098" type="line"/>
      <point x="799" y="1098" type="line"/>
    </contour>
    <contour>
      <point x="81" y="610" type="qcurve" smooth="yes"/>
      <point x="122" y="859"/>
      <point x="527" y="1164"/>
      <point x="885" y="1164" type="qcurve" smooth="yes"/>
      <point x="1055" y="1164"/>
      <point x="1238" y="1044"/>
      <point x="1240" y="954" type="qcurve" smooth="yes"/>
      <point x="1242" y="859"/>
      <point x="1146" y="739"/>
      <point x="1042" y="711" type="qcurve" smooth="yes"/>
      <point x="1005" y="701" type="line"/>
      <point x="1005" y="923" type="line" smooth="yes"/>
      <point x="1005" y="949"/>
      <point x="940" y="994"/>
      <point x="875" y="994" type="qcurve" smooth="yes"/>
      <point x="768" y="994"/>
      <point x="600" y="781"/>
      <point x="577" y="604" type="qcurve" smooth="yes"/>
      <point x="554" y="430"/>
      <point x="652" y="251"/>
      <point x="780" y="251" type="qcurve" smooth="yes"/>
      <point x="881" y="251"/>
      <point x="1043" y="356"/>
      <point x="1104" y="441" type="qcurve"/>
      <point x="1179" y="352" type="line"/>
      <point x="1179" y="302" type="line"/>
      <point x="1106" y="197"/>
      <point x="821" y="59"/>
      <point x="637" y="59" type="qcurve" smooth="yes"/>
      <point x="323" y="59"/>
      <point x="41" y="366"/>
    </contour>
  </outline>
</glyph>
<glyph name="micro" format="2">
  <advance width="1595"/>
  <unicode hex="00B5"/>
  <outline>
    <contour>
      <point x="-59" y="-301" type="line"/>
      <point x="-6" y="-265" type="line"/>
      <point x="22" y="-146"/>
      <point x="70" y="96"/>
      <point x="86" y="181" type="qcurve" smooth="yes"/>
      <point x="200" y="803" type="line"/>
      <point x="58" y="799" type="line"/>
      <point x="66" y="939" type="line"/>
      <point x="472" y="1050" type="line"/>
      <point x="630" y="1050" type="line"/>
      <point x="697" y="925" type="line"/>
      <point x="602" y="412" type="line" smooth="yes"/>
      <point x="586" y="324"/>
      <point x="634" y="237"/>
      <point x="695" y="237" type="qcurve" smooth="yes"/>
      <point x="743" y="237"/>
      <point x="830" y="275"/>
      <point x="881" y="330" type="qcurve"/>
      <point x="991" y="920" type="line"/>
      <point x="962" y="1033" type="line"/>
      <point x="1446" y="1061" type="line"/>
      <point x="1486" y="952" type="line"/>
      <point x="1372" y="415" type="line"/>
      <point x="1345" y="173" type="line"/>
      <point x="1489" y="173" type="line"/>
      <point x="1485" y="41" type="line"/>
      <point x="916" y="-25" type="line"/>
      <point x="861" y="71" type="line"/>
      <point x="866" y="155" type="line"/>
      <point x="811" y="88"/>
      <point x="688" y="17"/>
      <point x="606" y="17" type="qcurve"/>
      <point x="573" y="17"/>
      <point x="522" y="26"/>
      <point x="497" y="38" type="qcurve"/>
      <point x="456" y="-234" type="line"/>
      <point x="562" y="-242" type="line"/>
      <point x="549" y="-361" type="line"/>
      <point x="-34" y="-403" type="line"/>
    </contour>
  </outline>
</glyph>
<glyph name="germandbls" format="2">
  <advance width="1678"/>
  <unicode hex="00DF"/>
  <outline>
    <contour>
      <point x="123" y="182" type="qcurve"/>
      <point x="294" y="1194" type="line" smooth="yes"/>
      <point x="325" y="1375"/>
      <point x="644" y="1582"/>
      <point x="884" y="1582" type="qcurve" smooth="yes"/>
      <point x="1069" y="1582"/>
      <point x="1297" y="1422"/>
      <point x="1303" y="1283" type="qcurve" smooth="yes"/>
      <point x="1308" y="1176"/>
      <point x="1224" y="1065"/>
      <point x="1161" y="1025" type="qcurve" smooth="yes"/>
      <point x="1083" y="975"/>
      <point x="1024" y="930"/>
      <point x="1024" y="895" type="qcurve" smooth="yes"/>
      <point x="1024" y="849"/>
      <point x="1158" y="776"/>
      <point x="1305" y="711" type="qcurve" smooth="yes"/>
      <point x="1461" y="642"/>
      <point x="1609" y="452"/>
      <point x="1606" y="332" type="qcurve" smooth="yes"/>
      <point x="1602" y="156"/>
      <point x="1349" y="-31"/>
      <point x="1105" y="-31" type="qcurve" smooth="yes"/>
      <point x="896" y="-31"/>
      <point x="685" y="101"/>
      <point x="683" y="210" type="qcurve" smooth="yes"/>
      <point x="682" y="295"/>
      <point x="782" y="402"/>
      <point x="871" y="402" type="qcurve" smooth="yes"/>
      <point x="909" y="402" type="line"/>
      <point x="912" y="234" type="line" smooth="yes"/>
      <point x="912" y="183"/>
      <point x="1017" y="120"/>
      <point x="1091" y="120" type="qcurve" smooth="yes"/>
      <point x="1182" y="120"/>
      <point x="1252" y="169"/>
      <point x="1258" y="209" type="qcurve" smooth="yes"/>
      <point x="1264" y="250"/>
      <point x="1214" y="313"/>
      <point x="1067" y="385" type="qcurve" smooth="yes"/>
      <point x="915" y="460"/>
      <point x="740" y="635"/>
      <point x="746" y="766" type="qcurve" smooth="yes"/>
      <point x="750" y="871"/>
      <point x="868" y="1018"/>
      <point x="961" y="1074" type="qcurve" smooth="yes"/>
      <point x="1028" y="1115"/>
      <point x="1094" y="1189"/>
      <point x="1094" y="1252" type="qcurve" smooth="yes"/>
      <point x="1094" y="1343"/>
      <point x="1004" y="1417"/>
      <point x="926" y="1417" type="qcurve" smooth="yes"/>
      <point x="868" y="1417"/>
      <point x="777" y="1332"/>
      <point x="762" y="1233" type="qcurve"/>
      <point x="605" y="214" type="line" smooth="yes"/>
      <point x="539" y="-213"/>
      <point x="166" y="-447"/>
      <point x="-70" y="-447" type="qcurve"/>
      <point x="-305" y="-405" type="line" smooth="yes"/>
      <point x="-288" y="-270" type="line"/>
      <point x="-154" y="-268" type="line" smooth="yes"/>
      <point x="-36" y="-266"/>
      <point x="70" y="-120"/>
    </contour>
  </outline>
</glyph>
<glyph name="eth" format="2">
  <advance width="1492"/>
  <unicode hex="00F0"/>
  <outline>
    <contour>
      <point x="42" y="583" type="qcurve" smooth="yes"/>
      <point x="95" y="813"/>
      <point x="474" y="1092"/>
      <point x="765" y="1074" type="qcurve" smooth="yes"/>
      <point x="940" y="1063"/>
      <point x="1135" y="771"/>
      <point x="1066" y="475" type="qcurve"/>
      <point x="910" y="488" type="line"/>
      <point x="941" y="666"/>
      <point x="880" y="889"/>
      <point x="784" y="901" type="qcurve" smooth="yes"/>
      <point x="690" y="913"/>
      <point x="561" y="717"/>
      <point x="532" y="547" type="qcurve" smooth="yes"/>
      <point x="501" y="377"/>
      <point x="540" y="137"/>
      <point x="641" y="129" type="qcurve" smooth="yes"/>
      <point x="747" y="122"/>
      <point x="864" y="303"/>
      <point x="909" y="488" type="qcurve" smooth="yes"/>
      <point x="1029" y="975"/>
      <point x="995" y="1327"/>
      <point x="888" y="1357" type="qcurve" smooth="yes"/>
      <point x="788" y="1385"/>
      <point x="593" y="1305"/>
      <point x="554" y="1253" type="qcurve"/>
      <point x="488" y="1253" type="line"/>
      <point x="488" y="1400" type="line"/>
      <point x="544" y="1453"/>
      <point x="786" y="1544"/>
      <point x="938" y="1530" type="qcurve" smooth="yes"/>
      <point x="1183" y="1507"/>
      <point x="1508" y="1128"/>
      <point x="1434" y="673" type="qcurve" smooth="yes"/>
      <point x="1385" y="371"/>
      <point x="980" y="-45"/>
      <point x="586" y="-30" type="qcurve" smooth="yes"/>
      <point x="270" y="-18"/>
      <point x="-18" y="336"/>
    </contour>
    <contour>
      <point x="1052" y="1398" type="line"/>
      <point x="1312" y="1578" type="line"/>
      <point x="1391" y="1437" type="line"/>
      <point x="1126" y="1282" type="line"/>
      <point x="866" y="1111" type="line"/>
      <point x="783" y="1239" type="line"/>
    </contour>
  </outline>
</glyph>
<glyph name="thorn" format="2">
  <advance width="1528"/>
  <unicode hex="00FE"/>
  <outline>
    <contour>
      <point x="-60" y="-369" type="line"/>
      <point x="152" y="635" type="line"/>
      <point x="279" y="1342" type="line"/>
      <point x="160" y="1438" type="line"/>
      <point x="198" y="1560" type="line"/>
      <point x="684" y="1600" type="line"/>
      <point x="782" y="1491" type="line"/>
      <point x="661" y="869" type="line"/>
      <point x="764" y="955"/>
      <point x="1013" y="1065"/>
      <point x="1178" y="1065" type="qcurve" smooth="yes"/>
      <point x="1319" y="1065"/>
      <point x="1461" y="907"/>
      <point x="1461" y="760" type="qcurve" smooth="yes"/>
      <point x="1461" y="406"/>
      <point x="1000" y="28"/>
      <point x="652" y="28" type="qcurve" smooth="yes"/>
      <point x="598" y="28"/>
      <point x="526" y="39"/>
      <point x="505" y="49" type="qcurve"/>
      <point x="438" y="-286" type="line"/>
      <point x="602" y="-326" type="line"/>
      <point x="572" y="-430" type="line"/>
      <point x="57" y="-464" type="line"/>
    </contour>
    <contour>
      <point x="542" y="256" type="line"/>
      <point x="534" y="203"/>
      <point x="576" y="169"/>
      <point x="613" y="169" type="qcurve" smooth="yes"/>
      <point x="760" y="169"/>
      <point x="961" y="481"/>
      <point x="961" y="695" type="qcurve" smooth="yes"/>
      <point x="961" y="760"/>
      <point x="915" y="818"/>
      <point x="863" y="818" type="qcurve" smooth="yes"/>
      <point x="808" y="818"/>
      <point x="674" y="735"/>
      <point x="619" y="679" type="qcurve"/>
      <point x="582" y="484" type="line"/>
    </contour>
  </outline>
</glyph>
<glyph name="circumflex" format="2">
  <advance width="1024"/>
  <unicode hex="02C6"/>
  <outline>
    <contour>
      <point x="727" y="1629.0" type="qcurve" smooth="yes"/>
      <point x="768" y="1629.0"/>
      <point x="826" y="1587.0"/>
      <point x="860" y="1531.0" type="qcurve" smooth="yes"/>
      <point x="1030" y="1250.0" type="line"/>
      <point x="919" y="1162.0" type="line"/>
      <point x="681" y="1390.0" type="line"/>
      <point x="355" y="1162.0" type="line"/>
      <point x="278" y="1250.0" type="line"/>
      <point x="556" y="1531.0" type="line" smooth="yes"/>
      <point x="616" y="1591.0"/>
      <point x="686" y="1629.0"/>
    </contour>
  </outline>
</glyph>
<glyph name="tilde" format="2">
  <advance width="1024"/>
  <unicode hex="02DC"/>
  <outline>
    <contour>
      <point x="242" y="1301.0" type="line"/>
      <point x="293" y="1378.0"/>
      <point x="455" y="1504.0"/>
      <point x="540" y="1504.0" type="qcurve" smooth="yes"/>
      <point x="585" y="1504.0"/>
      <point x="657" y="1479.0"/>
      <point x="695" y="1453.0" type="qcurve" smooth="yes"/>
      <point x="725" y="1432.0"/>
      <point x="806" y="1385.0"/>
      <point x="851" y="1385.0" type="qcurve" smooth="yes"/>
      <point x="895" y="1385.0"/>
      <point x="988" y="1436.0"/>
      <point x="1021" y="1475.0" type="qcurve"/>
      <point x="1070" y="1381.0" type="line"/>
      <point x="1011" y="1291.0"/>
      <point x="866" y="1189.0"/>
      <point x="795" y="1189.0" type="qcurve" smooth="yes"/>
      <point x="743" y="1189.0"/>
      <point x="648" y="1234.0"/>
      <point x="621" y="1252.0" type="qcurve" smooth="yes"/>
      <point x="584" y="1276.0"/>
      <point x="515" y="1308.0"/>
      <point x="483" y="1308.0" type="qcurve" smooth="yes"/>
      <point x="431" y="1308.0"/>
      <point x="323" y="1237.0"/>
      <point x="297" y="1208.0" type="qcurve"/>
    </contour>
  </outline>
</glyph>
<glyph name="hungarumlaut" format="2">
  <advance width="1024"/>
  <unicode hex="02DD"/>
  <outline>
    <contour>
      <point x="327.0" y="1246" type="line"/>
      <point x="406" y="1167.0" type="line"/>
      <point x="711" y="1377" type="line" smooth="yes"/>
      <point x="759" y="1410"/>
      <point x="806" y="1480"/>
      <point x="806" y="1520" type="qcurve" smooth="yes"/>
      <point x="806" y="1559"/>
      <point x="732" y="1627.0"/>
      <point x="686" y="1627.0" type="qcurve" smooth="yes"/>
      <point x="641" y="1627.0"/>
      <point x="552" y="1552"/>
      <point x="512" y="1498" type="qcurve" smooth="yes"/>
    </contour>
    <contour>
      <point x="747.0" y="1246" type="line"/>
      <point x="826" y="1167.0" type="line"/>
      <point x="1131" y="1377" type="line" smooth="yes"/>
      <point x="1179" y="1410"/>
      <point x="1226" y="1480"/>
      <point x="1226" y="1520" type="qcurve" smooth="yes"/>
      <point x="1226" y="1559"/>
      <point x="1152" y="1627.0"/>
      <point x="1106" y="1627.0" type="qcurve" smooth="yes"/>
      <point x="1061" y="1627.0"/>
      <point x="972" y="1552"/>
      <point x="932" y="1498" type="qcurve" smooth="yes"/>
    </contour>
  </outline>
</glyph>
<glyph name="daggerdbl" format="2">
  <advance width="1028"/>
  <unicode hex="2021"/>
  <outline>
    <contour>
      <point x="280" y="-540.0" type="line"/>
      <point x="276" y="-58.0" type="line"/>
      <point x="438" y="550.0" type="line"/>
      <point x="490" y="830.0" type="line"/>
      <point x="557" y="1438.0" type="line"/>
      <point x="640" y="1506.0" type="line"/>
      <point x="780" y="1506.0" type="line"/>
      <point x="833" y="1438.0" type="line"/>
      <point x="670" y="830.0" type="line"/>
      <point x="618" y="550.0" type="line"/>
      <point x="542" y="-58.0" type="line"/>
      <point x="360" y="-540.0" type="line"/>
    </contour>
    <contour>
      <point x="162" y="832.0" type="line"/>
      <point x="162" y="1000.0" type="line"/>
      <point x="614" y="992.0" type="line"/>
      <point x="1046" y="1000.0" type="line"/>
      <point x="1046" y="832.0" type="line"/>
      <point x="584" y="836.0" type="line"/>
    </contour>
    <contour>
      <point x="81" y="414.0" type="line"/>
      <point x="81" y="582.0" type="line"/>
      <point x="533" y="574.0" type="line"/>
      <point x="965" y="582.0" type="line"/>
      <point x="965" y="414.0" type="line"/>
      <point x="502" y="418.0" type="line"/>
    </contour>
  </outline>
</glyph>
<glyph name="euro" format="2">
  <advance width="1345"/>
  <unicode hex="20AC"/>
  <outline>
    <contour>
      <point x="128" y="838.0" type="line"/>
      <point x="196" y="1014.0" type="line"/>
      <point x="1226" y="1014.0" type="line"/>
      <point x="1182" y="838.0" type="line"/>
    </contour>
    <contour>
      <point x="78" y="511.0" type="line"/>
      <point x="78" y="687.0" type="line"/>
      <point x="1188" y="687.0" type="line"/>
      <point x="1138" y="511.0" type="line"/>
    </contour>
    <contour>
      <point x="1374" y="1251.0" type="line"/>
      <point x="1324" y="1300.0"/>
      <point x="1214" y="1340.0"/>
      <point x="1144" y="1340.0" type="qcurve" smooth="yes"/>
      <point x="977" y="1340.0"/>
      <point x="776" y="1056.0"/>
      <point x="721" y="772.0" type="qcurve" smooth="yes"/>
      <point x="660" y="450.0"/>
      <point x="744" y="143.0"/>
      <point x="910" y="143.0" type="qcurve" smooth="yes"/>
      <point x="1009" y="143.0"/>
      <point x="1136" y="193.0"/>
      <point x="1210" y="251.0" type="qcurve"/>
      <point x="1253" y="133.0" type="line"/>
      <point x="1168" y="55.0"/>
      <point x="942.0" y="-27.0"/>
      <point x="792.0" y="-27.0" type="qcurve" smooth="yes"/>
      <point x="434.0" y="-27.0"/>
      <point x="172" y="374.0"/>
      <point x="244" y="746.0" type="qcurve" smooth="yes"/>
      <point x="319" y="1131.0"/>
      <point x="804" y="1520.0"/>
      <point x="1133" y="1520.0" type="qcurve" smooth="yes"/>
      <point x="1221" y="1520.0"/>
      <point x="1419" y="1456.0"/>
      <point x="1466" y="1378.0" type="qcurve"/>
    </contour>
  </outline>
</glyph>
<glyph name="ruble" format="2">
  <advance width="1545"/>
  <unicode hex="20BD"/>
  <outline>
    <contour>
      <point x="16" y="316" type="line"/>
      <point x="52" y="452" type="line"/>
      <point x="1020" y="462" type="line"/>
      <point x="979" y="286" type="line"/>
    </contour>
    <contour>
      <point x="-7" y="0" type="line"/>
      <point x="16" y="130" type="line"/>
      <point x="143" y="150" type="line"/>
      <point x="278" y="806" type="line"/>
      <point x="373" y="1334" type="line"/>
      <point x="219" y="1357" type="line"/>
      <point x="235" y="1500" type="line"/>
      <point x="1084" y="1500" type="line" smooth="yes"/>
      <point x="1331" y="1500"/>
      <point x="1611" y="1279"/>
      <point x="1587" y="1051" type="qcurve" smooth="yes"/>
      <point x="1564" y="829"/>
      <point x="1213" y="558"/>
      <point x="869" y="558" type="qcurve" smooth="yes"/>
      <point x="540" y="558"/>
      <point x="230" y="609"/>
      <point x="100" y="653" type="qcurve"/>
      <point x="129" y="799" type="line"/>
      <point x="260" y="755"/>
      <point x="576" y="717"/>
      <point x="815" y="717" type="qcurve" smooth="yes"/>
      <point x="961" y="717"/>
      <point x="1120" y="871"/>
      <point x="1143" y="1042" type="qcurve" smooth="yes"/>
      <point x="1163" y="1191"/>
      <point x="1037" y="1342"/>
      <point x="892" y="1342" type="qcurve" smooth="yes"/>
      <point x="857" y="1342" type="line"/>
      <point x="831" y="1320" type="line"/>
      <point x="729" y="764" type="line"/>
      <point x="612" y="150" type="line"/>
      <point x="792" y="130" type="line"/>
      <point x="767" y="0" type="line"/>
    </contour>
  </outline>
</glyph>
<glyph name="fi" format="2">
  <advance width="1682"/>
  <unicode hex="FB01"/>
  <outline>
    <contour>
      <point x="123" y="182" type="qcurve" smooth="yes"/>
      <point x="251" y="905" type="line"/>
      <point x="263" y="942" type="line"/>
      <point x="318" y="1219" type="line" smooth="yes"/>
      <point x="353" y="1395"/>
      <point x="634" y="1582"/>
      <point x="884" y="1582" type="qcurve" smooth="yes"/>
      <point x="1054" y="1582"/>
      <point x="1253" y="1475"/>
      <point x="1256" y="1395" type="qcurve" smooth="yes"/>
      <point x="1258" y="1329"/>
      <point x="1183" y="1248"/>
      <point x="1126" y="1248" type="qcurve" smooth="yes"/>
      <point x="1101" y="1248"/>
      <point x="1079" y="1262"/>
      <point x="1081" y="1291" type="qcurve" smooth="yes"/>
      <point x="1084" y="1338"/>
      <point x="1014" y="1417"/>
      <point x="951" y="1417" type="qcurve" smooth="yes"/>
      <point x="873" y="1417"/>
      <point x="795" y="1322"/>
      <point x="780" y="1223" type="qcurve" smooth="yes"/>
      <point x="737" y="938" type="line"/>
      <point x="736" y="913" type="line"/>
      <point x="605" y="214" type="line" smooth="yes"/>
      <point x="526" y="-210"/>
      <point x="166" y="-447"/>
      <point x="-70" y="-447" type="qcurve"/>
      <point x="-305" y="-405" type="line" smooth="yes"/>
      <point x="-288" y="-270" type="line"/>
      <point x="-154" y="-268" type="line" smooth="yes"/>
      <point x="-36" y="-266"/>
      <point x="70" y="-120"/>
    </contour>
    <contour>
      <point x="67" y="814" type="line"/>
      <point x="66" y="938" type="line"/>
      <point x="275" y="980" type="line"/>
      <point x="1085" y="980" type="line"/>
      <point x="1070" y="808" type="line"/>
      <point x="677" y="815" type="line"/>
      <point x="270" y="797" type="line"/>
    </contour>
    <contour>
      <point x="954" y="-18" type="line"/>
      <point x="903" y="118" type="line"/>
      <point x="997" y="507" type="line"/>
      <point x="1057" y="789" type="line"/>
      <point x="958" y="812" type="line"/>
      <point x="960" y="953" type="line"/>
      <point x="1363" y="1050" type="line"/>
      <point x="1523" y="1050" type="line"/>
      <point x="1564" y="934" type="line"/>
      <point x="1535" y="835" type="line"/>
      <point x="1409" y="189" type="line"/>
      <point x="1622" y="190" type="line"/>
      <point x="1613" y="63" type="line"/>
    </contour>
  </outline>
</glyph>
<glyph name="brevebelowcomb.case" format="2">
  <advance width="1024"/>
  <outline>
    <contour>
      <point x="684" y="-133.0" type="qcurve"/>
      <point x="770" y="-177.0" type="line"/>
      <point x="720" y="-324.0"/>
      <point x="479" y="-517.0"/>
      <point x="309" y="-517.0" type="qcurve" smooth="yes"/>
      <point x="139" y="-517.0"/>
      <point x="-32" y="-322.0"/>
      <point x="-21" y="-180.0" type="qcurve"/>
      <point x="87" y="-132.0" type="line"/>
      <point x="110" y="-210.0"/>
      <point x="235" y="-320.0"/>
      <point x="349" y="-320.0" type="qcurve" smooth="yes"/>
      <point x="469" y="-320.0"/>
      <point x="638" y="-208.0"/>
    </contour>
  </outline>
</glyph>
<glyph name="brevebelowcomb" format="2">
  <advance width="1024"/>
  <outline>
    <contour>
      <point x="717" y="-133.0" type="qcurve"/>
      <point x="803" y="-177.0" type="line"/>
      <point x="763" y="-298.0"/>
      <point x="512" y="-517.0"/>
      <point x="342" y="-517.0" type="qcurve" smooth="yes"/>
      <point x="172" y="-517.0"/>
      <point x="1" y="-322.0"/>
      <point x="12" y="-180.0" type="qcurve"/>
      <point x="120" y="-132.0" type="line"/>
      <point x="143" y="-210.0"/>
      <point x="268" y="-320.0"/>
      <point x="382" y="-320.0" type="qcurve" smooth="yes"/>
      <point x="502" y="-320.0"/>
      <point x="671" y="-208.0"/>
    </contour>
  </outline>
</glyph>
<glyph name="caroncomb.case" format="2">
  <advance width="1024"/>
  <outline>
    <contour>
      <point x="691.0" y="1601.0" type="qcurve" smooth="yes"/>
      <point x="650.0" y="1601.0"/>
      <point x="592.0" y="1643.0"/>
      <point x="558.0" y="1699.0" type="qcurve" smooth="yes"/>
      <point x="388.0" y="1980.0" type="line"/>
      <point x="499.0" y="2068.0" type="line"/>
      <point x="737.0" y="1840.0" type="line"/>
      <point x="1063.0" y="2068.0" type="line"/>
      <point x="1140.0" y="1980.0" type="line"/>
      <point x="862.0" y="1699.0" type="line" smooth="yes"/>
      <point x="802.0" y="1639.0"/>
      <point x="732.0" y="1601.0"/>
    </contour>
  </outline>
</glyph>
<glyph name="cedillacomb.case" format="2">
  <advance width="1024"/>
  <outline>
    <contour>
      <point x="464" y="-7.0" type="line"/>
      <point x="368" y="-133.0" type="line"/>
      <point x="390" y="-126.0"/>
      <point x="470" y="-119.0"/>
      <point x="509" y="-119.0" type="qcurve" smooth="yes"/>
      <point x="611" y="-119.0"/>
      <point x="738" y="-218.0"/>
      <point x="727" y="-314.0" type="qcurve" smooth="yes"/>
      <point x="715" y="-418"/>
      <point x="514" y="-551.0"/>
      <point x="358" y="-551.0" type="qcurve" smooth="yes"/>
      <point x="245" y="-551.0"/>
      <point x="81" y="-502.0"/>
      <point x="19" y="-456.0" type="qcurve"/>
      <point x="91" y="-353.0" type="line"/>
      <point x="136" y="-383.0"/>
      <point x="252" y="-417.0"/>
      <point x="334" y="-417.0" type="qcurve" smooth="yes"/>
      <point x="400" y="-417.0"/>
      <point x="481" y="-367.0"/>
      <point x="488" y="-317.0" type="qcurve" smooth="yes"/>
      <point x="493" y="-278.0"/>
      <point x="435" y="-232.0"/>
      <point x="383" y="-232.0" type="qcurve" smooth="yes"/>
      <point x="344" y="-232.0"/>
      <point x="283" y="-240.0"/>
      <point x="263" y="-247.0" type="qcurve"/>
      <point x="196" y="-168.0" type="line"/>
      <point x="357" y="51.0" type="line"/>
    </contour>
  </outline>
</glyph>
<glyph name="circumflexcomb.case" format="2">
  <advance width="1024"/>
  <outline>
    <contour>
      <point x="747" y="2068.0" type="qcurve" smooth="yes"/>
      <point x="788" y="2068.0"/>
      <point x="846" y="2026.0"/>
      <point x="880" y="1970.0" type="qcurve" smooth="yes"/>
      <point x="1050" y="1689.0" type="line"/>
      <point x="939" y="1601.0" type="line"/>
      <point x="701" y="1829.0" type="line"/>
      <point x="375" y="1601.0" type="line"/>
      <point x="298" y="1689.0" type="line"/>
      <point x="576" y="1970.0" type="line" smooth="yes"/>
      <point x="636" y="2030.0"/>
      <point x="706" y="2068.0"/>
    </contour>
  </outline>
</glyph>
<glyph name="commaaccentcomb.case" format="2">
  <advance width="1024"/>
  <outline>
    <contour>
      <point x="144" y="-646.0" type="qcurve"/>
      <point x="183" y="-704.0" type="line"/>
      <point x="298" y="-657.0"/>
      <point x="505" y="-455"/>
      <point x="516" y="-331.0" type="qcurve" smooth="yes"/>
      <point x="523" y="-252"/>
      <point x="440" y="-165.0"/>
      <point x="369" y="-165.0" type="qcurve" smooth="yes"/>
      <point x="296" y="-165.0"/>
      <point x="202" y="-252.0"/>
      <point x="193" y="-317.0" type="qcurve" smooth="yes"/>
      <point x="185" y="-378"/>
      <point x="250" y="-467.0"/>
      <point x="327" y="-467.0" type="qcurve"/>
      <point x="302" y="-521.0"/>
      <point x="194" y="-620.0"/>
    </contour>
  </outline>
</glyph>
<glyph name="commercialMinusSign" format="2">
  <advance width="1125"/>
  <outline>
    <contour>
      <point x="61" y="26" type="line"/>
      <point x="985" y="1538" type="line"/>
      <point x="1151" y="1464" type="line"/>
      <point x="228" y="-45" type="line"/>
    </contour>
    <contour>
      <point x="608" y="208" type="qcurve" smooth="yes"/>
      <point x="608" y="300"/>
      <point x="738" y="438"/>
      <point x="838" y="438" type="qcurve" smooth="yes"/>
      <point x="940" y="438"/>
      <point x="1069" y="300"/>
      <point x="1069" y="208" type="qcurve" smooth="yes"/>
      <point x="1069" y="116"/>
      <point x="940" y="-22"/>
      <point x="838" y="-22" type="qcurve" smooth="yes"/>
      <point x="738" y="-22"/>
      <point x="608" y="116"/>
    </contour>
    <contour>
      <point x="146" y="1288" type="qcurve" smooth="yes"/>
      <point x="146" y="1380"/>
      <point x="275" y="1518"/>
      <point x="377" y="1518" type="qcurve" smooth="yes"/>
      <point x="478" y="1518"/>
      <point x="608" y="1380"/>
      <point x="608" y="1288" type="qcurve" smooth="yes"/>
      <point x="608" y="1196"/>
      <point x="478" y="1058"/>
      <point x="377" y="1058" type="qcurve" smooth="yes"/>
      <point x="275" y="1058"/>
      <point x="146" y="1196"/>
    </contour>
  </outline>
</glyph>
<glyph name="diagonalbarl" format="2">
  <advance width="936"/>
  <outline>
    <contour>
      <point x="490" y="759" type="line"/>
      <point x="963" y="988" type="line"/>
      <point x="1016" y="846" type="line"/>
      <point x="542" y="642" type="line"/>
      <point x="79" y="419" type="line"/>
      <point x="23" y="564" type="line"/>
    </contour>
  </outline>
</glyph>
<glyph name="dieresisbelowcomb" format="2">
  <advance width="1024"/>
  <outline>
    <contour>
      <point x="476" y="-337" type="qcurve" smooth="yes"/>
      <point x="476" y="-266"/>
      <point x="554" y="-191"/>
      <point x="626" y="-191" type="qcurve" smooth="yes"/>
      <point x="695" y="-191"/>
      <point x="776" y="-272"/>
      <point x="776" y="-337" type="qcurve" smooth="yes"/>
      <point x="776" y="-408"/>
      <point x="700" y="-484.0"/>
      <point x="626" y="-484.0" type="qcurve" smooth="yes"/>
      <point x="557" y="-484.0"/>
      <point x="476" y="-404"/>
    </contour>
    <contour>
      <point x="8" y="-337" type="qcurve" smooth="yes"/>
      <point x="8" y="-266"/>
      <point x="85" y="-191"/>
      <point x="158" y="-191" type="qcurve" smooth="yes"/>
      <point x="227" y="-191"/>
      <point x="308" y="-272"/>
      <point x="308" y="-337" type="qcurve" smooth="yes"/>
      <point x="308" y="-408"/>
      <point x="231.0" y="-484.0"/>
      <point x="158" y="-484.0" type="qcurve" smooth="yes"/>
      <point x="89" y="-484.0"/>
      <point x="8" y="-404"/>
    </contour>
  </outline>
</glyph>
<glyph name="dotaccentcombstack.case" format="2">
  <advance width="1024"/>
  <outline>
    <contour>
      <point x="540" y="1800" type="qcurve" smooth="yes"/>
      <point x="540" y="1875"/>
      <point x="621" y="1954"/>
      <point x="697.0" y="1954" type="qcurve" smooth="yes"/>
      <point x="769" y="1954"/>
      <point x="854" y="1869"/>
      <point x="854" y="1800" type="qcurve" smooth="yes"/>
      <point x="854" y="1726"/>
      <point x="775" y="1646.0"/>
      <point x="697.0" y="1646.0" type="qcurve" smooth="yes"/>
      <point x="625" y="1646.0"/>
      <point x="540" y="1730.0"/>
    </contour>
  </outline>
</glyph>
<glyph name="eight.lc" format="2">
  <advance width="1336"/>
  <outline>
    <contour>
      <point x="-13.0" y="290" type="qcurve" smooth="yes"/>
      <point x="-13.0" y="445"/>
      <point x="281.0" y="659"/>
      <point x="579.0" y="741" type="qcurve"/>
      <point x="690.0" y="663.0" type="line"/>
      <point x="531.0" y="601"/>
      <point x="295.0" y="434"/>
      <point x="295.0" y="308" type="qcurve" smooth="yes"/>
      <point x="295.0" y="226"/>
      <point x="419.0" y="114"/>
      <point x="552.0" y="114" type="qcurve" smooth="yes"/>
      <point x="690.0" y="114"/>
      <point x="850.0" y="242"/>
      <point x="850.0" y="337" type="qcurve" smooth="yes"/>
      <point x="850" y="435"/>
      <point x="609.0" y="569"/>
      <point x="527.0" y="610" type="qcurve" smooth="yes"/>
      <point x="400.0" y="675"/>
      <point x="228" y="868"/>
      <point x="228.0" y="1006" type="qcurve" smooth="yes"/>
      <point x="228.0" y="1156"/>
      <point x="529.0" y="1378"/>
      <point x="845.0" y="1378" type="qcurve" smooth="yes"/>
      <point x="1077.0" y="1378"/>
      <point x="1291.0" y="1211"/>
      <point x="1281.0" y="1092" type="qcurve" smooth="yes"/>
      <point x="1271.0" y="973"/>
      <point x="1040.0" y="797"/>
      <point x="785.0" y="712" type="qcurve"/>
      <point x="664.0" y="793" type="line"/>
      <point x="810.0" y="855"/>
      <point x="990" y="988"/>
      <point x="990.0" y="1084" type="qcurve" smooth="yes"/>
      <point x="990.0" y="1150"/>
      <point x="904.0" y="1228"/>
      <point x="826.0" y="1228" type="qcurve" smooth="yes"/>
      <point x="708" y="1228"/>
      <point x="593.0" y="1135"/>
      <point x="593.0" y="1061" type="qcurve" smooth="yes"/>
      <point x="593.0" y="984"/>
      <point x="786.0" y="861"/>
      <point x="899.0" y="797" type="qcurve" smooth="yes"/>
      <point x="1090.0" y="689"/>
      <point x="1231" y="524"/>
      <point x="1231.0" y="406" type="qcurve" smooth="yes"/>
      <point x="1231.0" y="226"/>
      <point x="859" y="-31.0"/>
      <point x="515.0" y="-31.0" type="qcurve" smooth="yes"/>
      <point x="261" y="-31"/>
      <point x="-13.0" y="147"/>
    </contour>
  </outline>
</glyph>
<glyph name="eight.lf" format="2">
  <advance width="1311"/>
  <outline>
    <contour>
      <point x="27" y="315" type="qcurve" smooth="yes"/>
      <point x="27" y="487"/>
      <point x="352" y="748"/>
      <point x="629" y="846" type="qcurve"/>
      <point x="740" y="759" type="line"/>
      <point x="581" y="690"/>
      <point x="335" y="475"/>
      <point x="335" y="334" type="qcurve" smooth="yes"/>
      <point x="335" y="243"/>
      <point x="459" y="119"/>
      <point x="592" y="119" type="qcurve" smooth="yes"/>
      <point x="730" y="119"/>
      <point x="890" y="262"/>
      <point x="890" y="378" type="qcurve" smooth="yes"/>
      <point x="890" y="487"/>
      <point x="659" y="655"/>
      <point x="577" y="700" type="qcurve" smooth="yes"/>
      <point x="450" y="772"/>
      <point x="268" y="964"/>
      <point x="268" y="1118" type="qcurve" smooth="yes"/>
      <point x="268" y="1277"/>
      <point x="569" y="1520"/>
      <point x="885" y="1520" type="qcurve" smooth="yes"/>
      <point x="1117" y="1520"/>
      <point x="1331" y="1346"/>
      <point x="1321" y="1213" type="qcurve" smooth="yes"/>
      <point x="1311" y="1081"/>
      <point x="1080" y="886"/>
      <point x="825" y="791" type="qcurve"/>
      <point x="704" y="881" type="line"/>
      <point x="850" y="950"/>
      <point x="1030" y="1109"/>
      <point x="1030" y="1216" type="qcurve" smooth="yes"/>
      <point x="1030" y="1282"/>
      <point x="947" y="1364"/>
      <point x="866" y="1364" type="qcurve" smooth="yes"/>
      <point x="748" y="1364"/>
      <point x="633" y="1251"/>
      <point x="633" y="1169" type="qcurve" smooth="yes"/>
      <point x="633" y="1083"/>
      <point x="826" y="957"/>
      <point x="939" y="886" type="qcurve" smooth="yes"/>
      <point x="1130" y="766"/>
      <point x="1271" y="586"/>
      <point x="1271" y="455" type="qcurve" smooth="yes"/>
      <point x="1271" y="262"/>
      <point x="883" y="-31"/>
      <point x="546" y="-31" type="qcurve" smooth="yes"/>
      <point x="292" y="-31"/>
      <point x="27" y="156"/>
    </contour>
  </outline>
</glyph>
<glyph name="four.lc" format="2">
  <advance width="1320"/>
  <outline>
    <contour>
      <point x="-68" y="15" type="line"/>
      <point x="-68" y="160" type="line"/>
      <point x="934" y="1116" type="line"/>
      <point x="1182" y="1014" type="line"/>
      <point x="1207" y="969" type="line"/>
      <point x="1054" y="140" type="line"/>
      <point x="1045" y="107" type="line"/>
      <point x="982" y="-214" type="line"/>
      <point x="982" y="-372" type="line"/>
      <point x="555" y="-424" type="line"/>
      <point x="525" y="-359" type="line"/>
      <point x="618" y="103" type="line"/>
      <point x="628" y="140" type="line"/>
      <point x="726" y="671" type="line"/>
      <point x="197" y="200" type="line"/>
      <point x="201" y="190" type="line"/>
      <point x="858" y="190" type="line"/>
      <point x="1263" y="190" type="line"/>
      <point x="1231" y="14" type="line"/>
      <point x="847" y="0" type="line"/>
    </contour>
  </outline>
</glyph>
<glyph name="four.lf" format="2">
  <advance width="1381"/>
  <outline>
    <contour>
      <point x="59" y="395" type="line"/>
      <point x="59" y="540" type="line"/>
      <point x="1036" y="1536" type="line"/>
      <point x="1284" y="1434" type="line"/>
      <point x="1309" y="1389" type="line"/>
      <point x="1151" y="520" type="line"/>
      <point x="1142" y="487" type="line"/>
      <point x="1078" y="176" type="line"/>
      <point x="1078" y="18" type="line"/>
      <point x="651" y="-34" type="line"/>
      <point x="621" y="31" type="line"/>
      <point x="715" y="483" type="line"/>
      <point x="725" y="520" type="line"/>
      <point x="828" y="1091" type="line"/>
      <point x="324" y="580" type="line"/>
      <point x="328" y="570" type="line"/>
      <point x="955" y="570" type="line"/>
      <point x="1360" y="570" type="line"/>
      <point x="1328" y="394" type="line"/>
      <point x="944" y="380" type="line"/>
    </contour>
  </outline>
</glyph>
<glyph name="horncomb" format="2">
  <advance width="1024"/>
  <outline>
    <contour>
      <point x="128" y="968.0" type="line"/>
      <point x="176" y="968.0"/>
      <point x="208" y="968"/>
      <point x="241" y="968.0" type="qcurve" smooth="yes"/>
      <point x="321" y="968.0"/>
      <point x="390" y="1030.0"/>
      <point x="400" y="1082.0" type="qcurve" smooth="yes"/>
      <point x="406" y="1117.0"/>
      <point x="411" y="1203.0"/>
      <point x="409" y="1253.0" type="qcurve"/>
      <point x="557" y="1253.0" type="line"/>
      <point x="571" y="1203.0"/>
      <point x="577" y="1083"/>
      <point x="570" y="1040.0" type="qcurve" smooth="yes"/>
      <point x="551" y="924"/>
      <point x="397" y="809.0"/>
      <point x="263" y="809.0" type="qcurve" smooth="yes"/>
      <point x="225" y="809.0"/>
      <point x="148" y="820.0"/>
      <point x="101" y="836.0" type="qcurve"/>
    </contour>
  </outline>
</glyph>
<glyph name="leftanglebracket" format="2">
  <advance width="1164"/>
  <outline>
    <contour>
      <point x="1187" y="1508" type="line"/>
      <point x="1304" y="1259" type="line"/>
      <point x="484" y="660" type="line"/>
      <point x="1067" y="78" type="line"/>
      <point x="863" y="-155" type="line"/>
      <point x="112" y="548" type="line"/>
      <point x="112" y="773" type="line"/>
    </contour>
  </outline>
</glyph>
<glyph name="nine.lc" format="2">
  <advance width="1353"/>
  <outline>
    <contour>
      <point x="1278" y="633.0" type="qcurve" smooth="yes"/>
      <point x="1254" y="230.0"/>
      <point x="588" y="-346.0"/>
      <point x="89" y="-427.0" type="qcurve"/>
      <point x="49" y="-282.0" type="line"/>
      <point x="374" y="-186.0"/>
      <point x="798" y="285.0"/>
      <point x="824" y="658.0" type="qcurve" smooth="yes"/>
      <point x="835" y="818.0"/>
      <point x="777" y="986.0"/>
      <point x="691" y="990.0" type="qcurve" smooth="yes"/>
      <point x="597" y="994.0"/>
      <point x="478" y="844.0"/>
      <point x="461" y="674.0" type="qcurve" smooth="yes"/>
      <point x="451" y="570.0"/>
      <point x="504" y="444.0"/>
      <point x="570" y="444.0" type="qcurve" smooth="yes"/>
      <point x="599" y="444.0"/>
      <point x="658" y="460.0"/>
      <point x="695" y="489.0" type="qcurve"/>
      <point x="705" y="371.0" type="line"/>
      <point x="665" y="333.0"/>
      <point x="511" y="278.0"/>
      <point x="414" y="278.0" type="qcurve" smooth="yes"/>
      <point x="218" y="278.0"/>
      <point x="25" y="486.0"/>
      <point x="36" y="645.0" type="qcurve" smooth="yes"/>
      <point x="53" y="880.0"/>
      <point x="440" y="1135.0"/>
      <point x="725" y="1135.0" type="qcurve" smooth="yes"/>
      <point x="999" y="1135.0"/>
      <point x="1292" y="863.0"/>
    </contour>
  </outline>
</glyph>
<glyph name="one.lc" format="2">
  <advance width="978"/>
  <outline>
    <contour>
      <point x="243" y="44" type="line"/>
      <point x="265" y="106"/>
      <point x="300" y="215"/>
      <point x="319" y="321" type="qcurve" smooth="yes"/>
      <point x="368" y="595" type="line"/>
      <point x="393" y="787" type="line"/>
      <point x="62" y="649" type="line"/>
      <point x="9" y="813" type="line"/>
      <point x="751" y="1135" type="line"/>
      <point x="930" y="1030" type="line"/>
      <point x="899" y="985"/>
      <point x="860" y="847"/>
      <point x="856" y="824" type="qcurve" smooth="yes"/>
      <point x="795" y="508" type="line"/>
      <point x="742" y="150" type="line"/>
      <point x="398" y="-34" type="line"/>
    </contour>
  </outline>
</glyph>
<glyph name="seven.lc" format="2">
  <advance width="1181"/>
  <outline>
    <contour>
      <point x="12" y="647" type="line"/>
      <point x="196" y="1100" type="line"/>
      <point x="1222" y="1100" type="line"/>
      <point x="1253" y="1032" type="line"/>
      <point x="968" y="622"/>
      <point x="564" y="-74"/>
      <point x="479" y="-356" type="qcurve"/>
      <point x="140" y="-432" type="line"/>
      <point x="95" y="-358" type="line"/>
      <point x="222" y="-52"/>
      <point x="618" y="523"/>
      <point x="872" y="804" type="qcurve"/>
      <point x="861" y="823" type="line"/>
      <point x="285" y="823" type="line"/>
      <point x="164" y="647" type="line"/>
    </contour>
  </outline>
</glyph>
<glyph name="seven.lf" format="2">
  <advance width="1143"/>
  <outline>
    <contour>
      <point x="92" y="1047" type="line"/>
      <point x="276" y="1500" type="line"/>
      <point x="1302" y="1500" type="line"/>
      <point x="1333" y="1432" type="line"/>
      <point x="1048" y="1022"/>
      <point x="644" y="326"/>
      <point x="559" y="44" type="qcurve"/>
      <point x="220" y="-32" type="line"/>
      <point x="175" y="42" type="line"/>
      <point x="302" y="348"/>
      <point x="698" y="923"/>
      <point x="952" y="1204" type="qcurve"/>
      <point x="941" y="1223" type="line"/>
      <point x="365" y="1223" type="line"/>
      <point x="244" y="1047" type="line"/>
    </contour>
  </outline>
</glyph>
<glyph name="three.lc" format="2">
  <advance width="1098"/>
  <outline>
    <contour>
      <point x="-142" y="-231" type="line"/>
      <point x="-104" y="-242"/>
      <point x="8" y="-253"/>
      <point x="77" y="-253" type="qcurve" smooth="yes"/>
      <point x="288" y="-253"/>
      <point x="533" y="-83"/>
      <point x="539" y="86" type="qcurve" smooth="yes"/>
      <point x="543" y="200"/>
      <point x="420" y="340"/>
      <point x="257" y="358" type="qcurve" smooth="yes"/>
      <point x="183" y="366" type="line"/>
      <point x="196" y="505" type="line"/>
      <point x="245" y="509" type="line" smooth="yes"/>
      <point x="410" y="522"/>
      <point x="600" y="648"/>
      <point x="604" y="765" type="qcurve" smooth="yes"/>
      <point x="606" y="840"/>
      <point x="520" y="920"/>
      <point x="426" y="920" type="qcurve" smooth="yes"/>
      <point x="343" y="920"/>
      <point x="172" y="851"/>
      <point x="114" y="799" type="qcurve"/>
      <point x="42" y="932" type="line"/>
      <point x="121" y="1020"/>
      <point x="409" y="1137"/>
      <point x="588" y="1136" type="qcurve" smooth="yes"/>
      <point x="815" y="1135"/>
      <point x="1035" y="975"/>
      <point x="1030" y="836" type="qcurve" smooth="yes"/>
      <point x="1025" y="673"/>
      <point x="785" y="479"/>
      <point x="631" y="451" type="qcurve"/>
      <point x="630" y="445" type="line"/>
      <point x="775" y="430"/>
      <point x="970" y="266"/>
      <point x="965" y="110" type="qcurve" smooth="yes"/>
      <point x="957" y="-128"/>
      <point x="502" y="-417"/>
      <point x="111" y="-417" type="qcurve" smooth="yes"/>
      <point x="23" y="-417"/>
      <point x="-163" y="-393"/>
      <point x="-208" y="-368" type="qcurve"/>
    </contour>
  </outline>
</glyph>
<glyph name="tildecomb.case" format="2">
  <advance width="1024"/>
  <outline>
    <contour>
      <point x="267" y="1768.0" type="line"/>
      <point x="318" y="1845.0"/>
      <point x="480" y="1971.0"/>
      <point x="565" y="1971.0" type="qcurve" smooth="yes"/>
      <point x="610" y="1971.0"/>
      <point x="682" y="1946.0"/>
      <point x="720" y="1920.0" type="qcurve" smooth="yes"/>
      <point x="750" y="1899.0"/>
      <point x="831" y="1852.0"/>
      <point x="876" y="1852.0" type="qcurve" smooth="yes"/>
      <point x="920" y="1852.0"/>
      <point x="1013" y="1903.0"/>
      <point x="1046" y="1942.0" type="qcurve"/>
      <point x="1095" y="1838.0" type="line"/>
      <point x="1036" y="1748.0"/>
      <point x="891" y="1646.0"/>
      <point x="820" y="1646.0" type="qcurve" smooth="yes"/>
      <point x="768" y="1646.0"/>
      <point x="673" y="1691.0"/>
      <point x="646" y="1709.0" type="qcurve" smooth="yes"/>
      <point x="609" y="1733.0"/>
      <point x="540" y="1765.0"/>
      <point x="508" y="1765.0" type="qcurve" smooth="yes"/>
      <point x="456" y="1765.0"/>
      <point x="348" y="1694.0"/>
      <point x="322" y="1665.0" type="qcurve"/>
    </contour>
  </outline>
</glyph>
<glyph name="two.lc" format="2">
  <advance width="1145"/>
  <outline>
    <contour>
      <point x="-71" y="-3.0" type="qcurve"/>
      <point x="-146" y="120.0" type="line"/>
      <point x="-102" y="149"/>
      <point x="-58" y="179"/>
      <point x="-14" y="208.0" type="qcurve" smooth="yes"/>
      <point x="208" y="356"/>
      <point x="623" y="649"/>
      <point x="621" y="778.0" type="qcurve" smooth="yes"/>
      <point x="620" y="854"/>
      <point x="521" y="927.0"/>
      <point x="436" y="927.0" type="qcurve" smooth="yes"/>
      <point x="349" y="927"/>
      <point x="191" y="874.0"/>
      <point x="118" y="822.0" type="qcurve"/>
      <point x="34" y="948.0" type="line"/>
      <point x="122" y="1030.0"/>
      <point x="386" y="1136"/>
      <point x="583" y="1136.0" type="qcurve" smooth="yes"/>
      <point x="820" y="1136.0"/>
      <point x="1073" y="979.0"/>
      <point x="1081" y="863.0" type="qcurve" smooth="yes"/>
      <point x="1096" y="659.0"/>
      <point x="677" y="401.0"/>
      <point x="406" y="302.0" type="qcurve"/>
      <point x="407" y="301.0" type="line"/>
      <point x="420" y="301.0"/>
      <point x="453" y="302.0"/>
      <point x="466" y="303.0" type="qcurve"/>
      <point x="611" y="282.0"/>
      <point x="718" y="268.0"/>
      <point x="859" y="247.0" type="qcurve"/>
      <point x="951" y="382.0" type="line"/>
      <point x="1089" y="357.0" type="line"/>
      <point x="942" y="-30.0" type="line"/>
      <point x="802" y="-2.0"/>
      <point x="487" y="44.0"/>
      <point x="356" y="44.0" type="qcurve" smooth="yes"/>
      <point x="272" y="44.0"/>
      <point x="-7" y="17.0"/>
    </contour>
  </outline>
</glyph>
